<?xml version="1.0" encoding="UTF-8"?>
<svg width="118px" height="89px" viewBox="0 0 118 89" version="1.1" xmlns="http://www.w3.org/2000/svg" xmlns:xlink="http://www.w3.org/1999/xlink">
    <!-- Generator: Sketch 51.3 (57544) - http://www.bohemiancoding.com/sketch -->
    <title>Group 9</title>
    <desc>Created with Sketch.</desc>
    <defs>
        <polygon id="path-1" points="0 0.878564264 117.146271 0.878564264 117.146271 88.8313532 0 88.8313532"></polygon>
    </defs>
    <g id="Web-Pages" stroke="none" stroke-width="1" fill="none" fill-rule="evenodd">
        <g id="icons" transform="translate(-256.000000, -333.000000)">
            <g id="Group-9" transform="translate(256.000000, 332.000000)">
                <g id="Group-14">
                    <polygon id="Fill-1" fill="#373951" points="28.5251666 60.0655213 63.8408157 60.0655213 63.8408157 57.4319951 28.5251666 57.4319951"></polygon>
                    <polygon id="Fill-2" fill="#373951" points="28.5240492 73.2342354 31.2415831 73.2342354 31.2415831 70.6007093 28.5240492 70.6007093"></polygon>
                    <polygon id="Fill-3" fill="#373951" points="33.9568822 73.2342354 36.6732987 73.2342354 36.6732987 70.6007093 33.9568822 70.6007093"></polygon>
                    <polygon id="Fill-4" fill="#373951" points="28.5251666 53.4811642 63.8408157 53.4811642 63.8408157 50.847638 28.5251666 50.847638"></polygon>
                    <polygon id="Fill-5" fill="#373951" points="28.5240492 66.6498783 55.6904489 66.6498783 55.6904489 64.0163522 28.5240492 64.0163522"></polygon>
                    <polygon id="Fill-6" fill="#373951" points="29.8828161 32.4118715 49.6832687 32.4118715 49.6832687 29.7783453 29.8828161 29.7783453"></polygon>
                    <g id="Group-13" transform="translate(0.000000, 0.205071)">
                        <mask id="mask-2" fill="white">
                            <use xlink:href="#path-1"></use>
                        </mask>
                        <g id="Clip-8"></g>
                        <path d="M14.9408494,71.7118601 L20.3747997,71.7118601 L20.3747997,69.078334 L14.9408494,69.078334 L14.9408494,71.7118601 Z M14.9408494,66.4448078 L20.3747997,66.4448078 L20.3747997,26.9397486 L14.9408494,26.9397486 L14.9408494,66.4448078 Z M14.9408494,24.3051391 L20.3747997,24.3051391 L20.3747997,20.3553915 L14.9408494,20.3553915 L14.9408494,24.3051391 Z M14.9408494,17.7218653 L20.3747997,17.7218653 L20.3747997,13.7710344 L14.9408494,13.7710344 L14.9408494,17.7218653 Z M17.6572659,77.9809741 L15.7833743,74.3464696 L19.5322748,74.3464696 L17.6572659,77.9809741 Z M12.3741654,73.6087356 L16.4482314,81.5093141 C16.6795347,81.9578044 17.1477282,82.2405483 17.6639703,82.2405483 C18.1802123,82.2405483 18.6484059,81.9578044 18.8797091,81.5093141 L22.9548926,73.6087356 C23.0465199,73.4278229 23.0912162,73.2306605 23.0912162,73.0291649 L23.0912162,26.9397486 L25.8065153,26.9397486 L25.8065153,24.3051391 L23.0912162,24.3051391 L23.0912162,12.4537297 C23.0912162,12.1049039 22.9481881,11.7690779 22.6934193,11.5231666 C22.4397679,11.2761719 22.0922543,11.1375083 21.7324493,11.1375083 L13.5831998,11.1375083 C12.8323023,11.1375083 12.2244329,11.7268288 12.2244329,12.4537297 L12.2244329,24.3051391 L9.50913381,24.3051391 L9.50913381,26.9397486 L12.2244329,26.9397486 L12.2244329,73.0291649 C12.2277851,73.2306605 12.2791858,73.4278229 12.3741654,73.6087356 Z" id="Fill-7" fill="#373951" mask="url(#mask-2)"></path>
                        <path d="M57.0485454,84.3409777 L57.0485454,74.3463613 C57.0485454,73.6194604 57.6564148,73.0301399 58.4073123,73.0301399 L68.7153921,73.0301399 L57.0485454,84.3409777 Z M70.6317452,51.2664456 L70.6317452,70.3955304 L58.4084297,70.3955304 C56.1557371,70.3955304 54.3321289,72.163492 54.3321289,74.3463613 L54.3321289,86.1966874 L4.0767478,86.1966874 C3.32585028,86.1966874 2.71798085,85.6073669 2.71798085,84.880466 L2.71798085,8.50387375 C2.71798085,7.77588956 3.32585028,7.18656901 4.0767478,7.18656901 L51.9542867,7.18656901 L58.8688014,4.55304284 L4.07451299,4.55304284 C1.82405523,4.55304284 -0.000670444217,6.32100447 -0.000670444217,8.50387375 L-0.000670444217,84.8815493 C-0.000670444217,87.0633353 1.82405523,88.8312969 4.07451299,88.8312969 L55.6897784,88.8312969 C56.0495835,88.8345468 56.4004493,88.6969665 56.6541007,88.4488885 L72.953717,72.6477315 C73.2084858,72.4007369 73.3515139,72.0616609 73.3481617,71.7128351 L73.3481617,51.4614413 C72.4955801,51.4126924 71.5848934,51.3487771 70.6317452,51.2664456 Z" id="Fill-9" fill="#373951" mask="url(#mask-2)"></path>
                        <polygon id="Fill-10" fill="#373951" mask="url(#mask-2)" points="28.5240492 38.7900747 49.6832687 38.7900747 49.6832687 36.1565485 28.5240492 36.1565485"></polygon>
                        <polygon id="Fill-11" fill="#373951" mask="url(#mask-2)" points="28.5240492 46.6917365 44.8236655 46.6917365 44.8236655 44.0582104 28.5240492 44.0582104"></polygon>
                        <path d="M78.5957286,0.878455933 L40.0451861,15.5605539 L78.5957286,30.2437352 L117.146271,15.5605539 L78.5957286,0.878455933 Z M117.146271,18.6750697 L113.474472,20.0660395 L113.474472,29.3543379 C113.474472,30.2957341 114.446616,31.1342159 115.310371,31.1342159 C116.175244,31.1342159 117.146271,30.2957341 117.146271,29.3543379 L117.146271,18.6750697 Z M53.8127581,24.2931144 L53.8127581,40.421431 C53.8127581,44.1480168 64.8672658,47.1509516 78.5957286,47.1509516 C92.3241913,47.1509516 103.378699,44.1480168 103.378699,40.421431 L103.378699,24.2931144 L81.3769547,32.662766 L79.2840513,33.4687486 C79.0650395,33.5564966 78.8326188,33.6084955 78.5957286,33.6084955 C78.3588383,33.6041623 78.1253002,33.5597466 77.9074058,33.4687486 L75.8133851,32.662766 L53.8127581,24.2931144 Z" id="Fill-12" fill="#E46F50" mask="url(#mask-2)"></path>
                    </g>
                </g>
            </g>
        </g>
    </g>
</svg>