<?xml version="1.0" encoding="UTF-8"?>
<svg width="114px" height="90px" viewBox="0 0 114 90" version="1.1" xmlns="http://www.w3.org/2000/svg" xmlns:xlink="http://www.w3.org/1999/xlink">
    <!-- Generator: Sketch 51.3 (57544) - http://www.bohemiancoding.com/sketch -->
    <title>Group 11</title>
    <desc>Created with Sketch.</desc>
    <defs>
        <polygon id="path-1" points="0 0.406434091 69.3629011 0.406434091 69.3629011 61.9504568 0 61.9504568"></polygon>
    </defs>
    <g id="Web-Pages" stroke="none" stroke-width="1" fill="none" fill-rule="evenodd">
        <g id="icons" transform="translate(-257.000000, -458.000000)">
            <g id="Group-11" transform="translate(257.000000, 458.000000)">
                <g id="Group-16">
                    <g id="Group-3">
                        <mask id="mask-2" fill="white">
                            <use xlink:href="#path-1"></use>
                        </mask>
                        <g id="Clip-2"></g>
                        <path d="M12.4481911,59.2984544 C6.407656,55.8180131 2.32942188,49.2973012 2.32942188,41.836361 C2.32942188,30.6035288 11.3597974,21.4637524 22.4592183,21.4637524 C23.5446192,21.4637524 24.5681682,21.4637524 25.5158987,21.6523969 L27.8064138,22.1075392 L28.2553387,19.8128634 C30.1907043,9.91850896 38.9686842,2.73704215 49.1303507,2.73704215 C56.4827444,2.73704215 63.2275929,6.52490407 66.9696321,12.6723195 C67.7507616,12.4367634 68.5518433,12.2710756 69.3629011,12.140322 C65.3515069,5.00377059 57.7008275,0.406434091 49.1303507,0.406434091 C37.6677993,0.406434091 28.0747711,8.59999365 25.9688141,19.3657061 C24.7976187,19.1331443 23.6304138,19.1331443 22.4592183,19.1331443 C10.057915,19.1331443 -0.000997611085,29.4297408 -0.000997611085,41.836361 C-0.000997611085,50.6447619 5.07085714,58.2663992 12.4481911,61.9504568 L12.4481911,59.2984544 Z" id="Fill-1" fill="#373951" mask="url(#mask-2)"></path>
                    </g>
                    <path d="M54.328096,17.8540064 L52.0137438,20.0692292 C51.5255442,20.5916153 51.4040049,21.3708229 51.8911832,21.8932089 C52.2578436,22.4123164 53.1116823,22.4123164 53.5957966,22.0254447 L55.9101488,19.8102219 C56.3973271,19.2878359 56.5198876,18.5086283 56.031688,17.9862422 C55.5434884,17.4638562 54.8162956,17.3316204 54.328096,17.8540064" id="Fill-4" fill="#373951"></path>
                    <path d="M48.4068106,17.2248306 L48.4068106,20.2087978 C48.4068106,20.9844334 48.8817433,21.5044248 49.5966421,21.5044248 C50.3125407,21.5044248 50.7874734,20.987697 50.7874734,20.2087978 L50.7874734,17.2248306 C50.7874734,16.4502828 50.3125407,15.9292035 49.5966421,15.9292035 C48.8847429,15.9292035 48.4068106,16.4459314 48.4068106,17.2248306" id="Fill-6" fill="#373951"></path>
                    <path d="M95.3232483,48.5840708 C93.8302873,54.303876 89.560634,58.8347788 84.1167528,60.4690089 L84.1167528,62.920354 C90.6566453,61.1972627 95.9088957,55.8165602 97.6071754,48.9160238 C96.8357634,48.8526974 96.072173,48.7464724 95.3232483,48.5840708" id="Fill-8" fill="#373951"></path>
                    <path d="M84.9341446,87.611234 L66.1981248,87.611234 L66.1981248,85.8194092 L66.199113,85.8194092 C66.199113,82.4761384 68.908721,79.7278056 72.2072882,79.8489967 L79.0435637,79.8489967 C82.2235485,79.8489967 84.9341446,82.4761384 84.9341446,85.8194092 L84.9341446,87.611234 Z M70.9127636,71.607003 C70.9127636,69.0980475 72.915818,66.9506621 75.5068435,66.9506621 C78.0978691,66.9506621 80.1009235,69.0980475 80.1009235,71.607003 C80.1009235,74.2341447 78.0978691,76.2643454 75.5068435,76.2643454 C72.915818,76.2643454 70.9127636,74.1159584 70.9127636,71.607003 Z M49.4651595,53.4543849 L47.1063579,53.4543849 C46.0480099,53.4543849 45.2218858,52.8584454 45.2218858,52.3796906 L45.2218858,49.8707352 L51.3506197,49.8707352 L51.3506197,52.3796906 C51.3506197,52.8584454 50.5274602,53.4543849 49.4651595,53.4543849 Z M52.9999033,71.607003 C52.9999033,74.2341447 50.8802428,76.2643454 48.4048352,76.2643454 C45.8138097,76.2643454 43.8107552,74.1159584 43.8107552,71.607003 C43.8107552,69.0980475 45.8138097,67.0678469 48.520453,66.9506621 C50.9958607,67.0678469 52.9999033,69.0980475 52.9999033,71.607003 Z M57.7125657,85.8194092 L57.7125657,87.611234 L39.0971047,87.611234 L39.0971047,85.8194092 L39.0961165,85.8194092 C39.0961165,82.4751369 41.687142,79.7278056 44.9866974,79.8489967 L51.8219848,79.8489967 C55.0029577,79.8489967 57.7125657,82.4761384 57.7125657,85.8194092 Z M40.7463883,47.4819692 L40.7463883,43.9003227 C55.2401226,44.0205122 53.8260274,44.0205122 55.8290818,44.0205122 L55.8290818,47.6021587 C55.8290818,47.6021587 40.9805885,47.4819692 40.7463883,47.4819692 Z M45.9294275,27.0587715 C45.9294275,25.7457015 46.99074,24.6700056 48.2862528,24.6700056 C49.5827537,24.6700056 50.643078,25.7457015 50.643078,27.0587715 C50.643078,28.3718416 49.5827537,29.4475375 48.2862528,29.4475375 C46.99074,29.4475375 45.9294275,28.3748464 45.9294275,27.0587715 Z M25.6636947,71.607003 C25.6636947,74.1129537 23.6606403,76.2643454 21.0686266,76.2643454 C18.4766129,76.2643454 16.4745466,74.1159584 16.4745466,71.607003 C16.4745466,68.9798612 18.5932189,66.9506621 21.0686266,66.9506621 C23.6606403,66.9506621 25.6636947,69.0980475 25.6636947,71.607003 Z M30.6115455,85.8194092 L30.6115455,87.611234 L11.8755257,87.611234 L11.8794785,85.8194092 C11.8794785,82.5963279 14.4714922,79.8489967 17.7700594,79.8489967 L24.7209646,79.8489967 C27.9009494,79.8489967 30.6115455,82.4761384 30.6115455,85.8194092 Z M79.2718349,77.3370365 C81.1592714,76.1441559 82.3352136,73.9927642 82.3352136,71.6049998 C82.3352136,68.2607275 79.9783883,65.3932068 76.7993917,64.7962657 L76.7993917,59.4227943 C76.7993917,58.7086684 76.3290149,58.2299136 75.6214732,58.2299136 L49.5847301,58.2329184 L49.5847301,55.8441524 C51.9415554,55.723963 53.8260274,54.2897018 53.8260274,52.3806922 L53.8260274,49.8707352 L56.4180411,49.8707352 C57.4754009,49.8707352 58.3015249,49.0364199 58.3015249,47.9617256 L58.3015249,44.0255201 C58.2422337,43.9684301 58.1780016,43.9183511 58.1196986,43.8592579 C57.3983223,43.1271037 56.7609419,42.3348547 56.1759354,41.5125583 L54.5325809,41.5125583 C54.6215177,40.8505146 54.7638166,40.2044961 54.956513,39.5755045 C54.4545141,38.6470407 54.0454048,37.6755091 53.7064568,36.6769348 C52.9406121,38.2303839 52.474188,39.8699687 52.410944,41.5125583 L49.7013361,41.5125583 L49.7013361,31.5989292 C51.0591046,31.254386 52.2231886,30.1626649 52.7736086,28.7784827 C52.8388289,28.0813837 52.945553,27.3932989 53.0848874,26.7152299 C52.9050374,24.250344 50.8802428,22.2822412 48.4048352,22.2822412 C45.8138097,22.2822412 43.6911846,24.4326314 43.6911846,27.0597731 C43.6911846,29.2101633 45.2208976,31.1201744 47.2249403,31.5989292 L47.2249403,41.5125583 L44.5153323,41.5125583 C44.0449555,38.2854707 42.6298721,35.1835805 40.274035,32.6736235 C38.1543746,30.5232334 37.0940502,27.7759021 37.0940502,24.7911967 C37.0940502,18.3420294 42.5112897,13.2059322 48.9937944,13.5644975 C52.3872276,13.7838433 55.4219489,15.5336018 57.3746058,18.1166741 C57.6216525,17.8352304 57.8598055,17.5487788 58.1236513,17.2803556 C58.4359183,16.9648582 58.7679491,16.6764035 59.0970152,16.3859456 C56.7629183,13.3922259 53.231139,11.3880663 49.2299711,11.1757315 C41.3343594,10.6989799 34.8548192,17.0279577 34.6216071,24.6700056 C34.6216071,28.2546569 35.9161317,31.5989292 38.3925276,34.2250694 C40.395582,36.2552701 41.5715242,38.7642255 41.9262832,41.3913672 L40.157429,41.3913672 C39.099081,41.3913672 38.272957,42.2256826 38.272957,43.3013784 L38.272957,47.8405345 C38.272957,48.9132256 39.0961165,49.7505457 40.157429,49.7505457 L42.7494427,49.7505457 L42.7494427,52.2595011 C42.7494427,54.1725171 44.6329265,55.723963 46.99074,55.723963 L47.1093224,55.723963 L47.1093224,58.1127289 L21.1842444,58.1127289 C20.4796673,58.1127289 20.0083022,58.5884789 20.0083022,59.3056095 L20.0083022,64.6790809 C16.7087469,65.2790268 14.2333392,68.1435427 14.2333392,71.607003 C14.2333392,74.1159584 15.4132341,76.1471606 17.2977061,77.4602307 C12.9378264,77.6986065 9.51968863,81.2792515 9.52265319,85.8224139 L9.52265319,88.8071194 C9.52265319,89.5212452 9.99204187,90 10.6985954,90 L31.6758226,89.9969953 C32.3794115,89.9969953 32.8527529,89.5212452 32.8527529,88.8041147 L32.8527529,85.6982181 C32.8527529,81.2792515 29.3189973,77.5774155 24.9601058,77.3400413 C26.8465542,76.1471606 28.0224964,73.9957689 28.0224964,71.607003 C28.0224964,68.1435427 25.5470887,65.2750204 22.2475333,64.6790809 L22.2475333,60.4984901 L47.112287,60.4984901 L47.112287,64.6790809 C43.8137198,65.2790268 41.3383121,68.1435427 41.3383121,71.607003 C41.3383121,74.1159584 42.5172188,76.1471606 44.4007027,77.4602307 C40.040823,77.6986065 36.6236734,81.4004426 36.6236734,85.8194092 L36.6236734,88.8041147 C36.6236734,89.5182405 37.0940502,89.9969953 37.8006037,89.9969953 L58.8924606,89.9969953 C59.5960495,89.9969953 60.0693909,89.5212452 60.0693909,88.8041147 L60.0733437,85.8194092 C60.0733437,81.4004426 56.5395881,77.6986065 52.1797084,77.4602307 C54.0671449,76.2673501 55.2430871,74.1159584 55.2430871,71.728194 C55.2430871,68.2637322 52.7676794,65.3962115 49.4691122,64.7992704 L49.4691122,60.6186796 L74.4484956,60.6186796 L74.4484956,64.6790809 C71.1499284,65.1578357 68.5579147,68.1435427 68.5579147,71.607003 C68.5579147,74.1159584 69.7378096,76.1471606 71.6222816,77.4602307 C67.2624019,77.6986065 63.8442641,81.4004426 63.8442641,85.8194092 L63.8442641,88.8041147 C63.8442641,89.5182405 64.3136528,89.9969953 65.0221827,89.9969953 L86.1130514,89.9969953 C86.8176285,89.9969953 87.2909699,89.5212452 87.2909699,88.8041147 L87.2909699,85.8194092 C87.2909699,81.2802531 83.7532615,77.5774155 79.2718349,77.3370365 Z" id="Fill-10" fill="#373951"></path>
                    <path d="M42.3237691,17.9373895 C41.9513055,18.4652779 41.9513055,19.2526931 42.4489669,19.7805816 L44.8120765,22.0191378 C45.3066081,22.414502 46.1798631,22.414502 46.5544134,21.8866135 C46.926877,21.3587251 46.926877,20.5713099 46.4281722,20.0423171 L44.0650626,17.8037608 C43.5663578,17.4083967 42.8235172,17.4083967 42.3237691,17.9373895" id="Fill-12" fill="#373951"></path>
                    <path d="M109.325387,20.1306545 C106.645374,17.4214673 103.08065,15.9292035 99.2880297,15.9292035 C95.4993902,15.9292035 91.9356608,17.4204624 89.2506728,20.1306545 L75.6724755,33.8454123 C74.7280524,34.7990543 73.4701485,35.3236076 72.1276545,35.3236076 C70.7911315,35.3236076 69.5362131,34.7970445 68.5818382,33.830339 C67.6374151,32.8867459 67.1189278,31.6215877 67.1189278,30.2649843 C67.1189278,28.9144102 67.6404006,27.6442275 68.5888045,26.686566 C69.5342228,25.7329241 70.7901364,25.2073659 72.1276545,25.2073659 C73.4701485,25.2073659 74.7280524,25.7329241 75.6724755,26.6855611 L77.3692526,28.3989009 L83.8607932,21.8439943 L82.1660065,20.1306545 C79.4849992,17.4214673 75.9202746,15.9292035 72.1276545,15.9292035 C68.3380198,15.9292035 64.7732952,17.4214673 62.0912927,20.1296496 C59.4082951,22.8358221 57.9294618,26.4353431 57.9294618,30.2649843 C57.9294618,34.089601 59.4082951,37.6881171 62.0902976,40.400319 C64.7703097,43.1095062 68.3360295,44.6017699 72.1276545,44.6017699 C75.9172891,44.6017699 79.4820137,43.1095062 82.1650114,40.400319 L95.745199,26.6855611 C96.6896221,25.7319192 97.947526,25.2073659 99.29002,25.2073659 C100.627538,25.2073659 101.883452,25.7319192 102.82887,26.6845562 C104.782403,28.6601727 104.783398,31.8718056 102.829865,33.8444075 C101.883452,34.7990543 100.627538,35.3236076 99.29002,35.3236076 C97.947526,35.3236076 96.6896221,34.7990543 95.745199,33.8444075 L94.0484219,32.1320725 L87.5578764,38.6869791 L89.251668,40.3993141 C91.9316801,43.1095062 95.4973998,44.6017699 99.29002,44.6017699 C103.076669,44.6017699 106.641394,43.1105111 109.327377,40.4013239 C112.003408,37.698166 113.478261,34.0976401 113.478261,30.2649843 C113.478261,26.4323285 112.002413,22.8328075 109.325387,20.1306545" id="Fill-14" fill="#E46F50"></path>
                </g>
            </g>
        </g>
    </g>
</svg>