<?xml version="1.0" encoding="UTF-8"?>
<svg width="116px" height="87px" viewBox="0 0 116 87" version="1.1" xmlns="http://www.w3.org/2000/svg" xmlns:xlink="http://www.w3.org/1999/xlink">
    <!-- Generator: Sketch 51.3 (57544) - http://www.bohemiancoding.com/sketch -->
    <title>Group 10</title>
    <desc>Created with Sketch.</desc>
    <defs>
        <polygon id="path-1" points="0 87.9661674 115.958587 87.9661674 115.958587 0.935272469 0 0.935272469"></polygon>
    </defs>
    <g id="Web-Pages" stroke="none" stroke-width="1" fill="none" fill-rule="evenodd">
        <g id="icons" transform="translate(-120.000000, -459.000000)">
            <g id="Group-10" transform="translate(120.000000, 458.000000)">
                <g id="Group-7">
                    <g id="Group-16">
                        <polygon id="Fill-1" fill="#373951" points="50.3958428 46.0810262 61.2398477 46.0810262 62.8154005 43.4602411 50.3958428 43.4602411"></polygon>
                        <polygon id="Fill-2" fill="#373951" points="50.3958428 35.5932346 61.6778514 35.5932346 55.7327654 34.2929531 55.7327654 32.9724495 50.3958428 32.9724495"></polygon>
                        <polygon id="Fill-3" fill="#373951" points="50.3956327 30.3473166 53.1192383 30.3473166 53.1192383 27.7265315 50.3956327 27.7265315"></polygon>
                        <g id="Group-15" transform="translate(0.000000, 0.075833)">
                            <path d="M50.3958428,40.7630164 L64.3930541,40.7630164 L64.5978759,40.423285 C64.1777285,39.6963002 63.8006462,38.9349379 63.4634779,38.1412202 L50.3958428,38.1412202 L50.3958428,40.7630164 Z" id="Fill-4" fill="#373951"></path>
                            <polygon id="Fill-6" fill="#373951" points="50.3958428 51.250808 66.5452592 51.250808 63.8216536 48.6300229 50.3958428 48.6300229"></polygon>
                            <mask id="mask-2" fill="white">
                                <use xlink:href="#path-1"></use>
                            </mask>
                            <g id="Clip-9"></g>
                            <polygon id="Fill-8" fill="#373951" mask="url(#mask-2)" points="39.498059 25.0299135 42.2206143 25.0299135 42.2206143 22.4081173 39.498059 22.4081173"></polygon>
                            <polygon id="Fill-10" fill="#373951" mask="url(#mask-2)" points="28.602586 35.5170984 31.3251413 35.5170984 31.3251413 32.8963133 28.602586 32.8963133"></polygon>
                            <polygon id="Fill-11" fill="#373951" mask="url(#mask-2)" points="17.707113 30.2714837 20.4307187 30.2714837 20.4307187 27.6506986 17.707113 27.6506986"></polygon>
                            <path d="M78.9959079,69.6081338 L49.0330946,69.6081338 L2.72339558,69.6081338 L2.72339558,59.1199378 L78.9959079,59.1199378 L78.9959079,69.6081338 Z M47.6697162,85.3419445 L34.051688,85.3419445 L34.051688,72.22993 L47.6739177,72.22993 L47.6697162,85.3419445 Z M80.2626523,52.6842521 C79.8393538,52.558875 79.4160553,52.4213647 78.999059,52.2757655 L78.999059,56.4961193 L76.2754533,56.4961193 L76.2754533,51.1554607 C76.0044582,51.0280615 75.7334631,50.9006622 75.4677199,50.764163 L73.5486966,51.8329013 L73.5486966,56.4961193 L8.17165725,56.4961193 L8.17165725,17.1631092 L63.8706007,17.1631092 C64.0302568,16.8446111 64.1909631,16.5281351 64.3632236,16.2187368 L63.352769,14.5392908 L6.80827887,14.541313 C6.05936609,14.541313 5.44910197,15.1287652 5.44910197,15.8506945 L5.44910197,56.4961193 L2.72339558,56.4961193 L2.72339558,11.9174946 L61.7751155,11.9174946 L60.9054103,10.4706028 L62.1259386,9.29569835 L1.3631683,9.29569835 C0.610054054,9.29569835 -0.00021007371,9.88315057 -0.00021007371,10.6081131 L-0.00021007371,70.9205486 C-0.00021007371,71.6455111 0.610054054,72.2329633 1.3631683,72.2329633 L31.3291327,72.2329633 L31.3291327,85.3449778 L27.243199,85.3449778 L27.243199,87.9657629 L54.4855577,87.9657629 L54.4855577,85.3449778 L50.3996241,85.3449778 L50.3954226,72.22993 L80.3624373,72.22993 C81.1155516,72.22993 81.7247654,71.6424778 81.7247654,70.9175152 L81.7247654,58.8772725 L80.2626523,52.6842521 Z" id="Fill-12" fill="#373951" mask="url(#mask-2)"></path>
                            <path d="M17.707113,48.6291129 L20.4307187,48.6291129 L20.4307187,35.5170984 L17.707113,35.5170984 L17.707113,48.6291129 Z M28.602586,48.6291129 L31.3251413,48.6291129 L31.3251413,40.7627131 L28.602586,40.7627131 L28.602586,48.6291129 Z M39.498059,48.6291129 L42.2206143,48.6291129 L42.2206143,30.274517 L39.498059,30.274517 L39.498059,48.6291129 Z M14.9782555,34.2077169 L14.9782555,48.630124 L12.2588514,48.630124 L12.2588514,51.2509091 L21.7940971,51.2509091 L47.6762285,51.2509091 L47.6762285,48.630124 L44.9536732,48.630124 L44.947371,28.9621023 C44.947371,28.2381508 44.3381572,27.6506986 43.5839926,27.6506986 L38.1346806,27.6506986 C37.3815663,27.6506986 36.7723526,28.2381508 36.7723526,28.9621023 L36.7723526,48.630124 L34.0487469,48.630124 L34.0487469,39.4502983 C34.0487469,38.7253357 33.4395332,38.1388946 32.6853686,38.1388946 L27.2360565,38.1388946 C26.4839926,38.1388946 25.8737285,38.7253357 25.8737285,39.4502983 L25.8737285,48.630124 L23.1501229,48.630124 L23.1543243,34.2077169 C23.1543243,33.4827544 22.5440602,32.8963133 21.7898956,32.8963133 L16.3405835,32.8963133 C15.5885197,32.8963133 14.9782555,33.4827544 14.9782555,34.2077169 Z" id="Fill-13" fill="#373951" mask="url(#mask-2)"></path>
                            <path d="M109.776643,23.9266964 C109.214696,20.9520244 108.090802,18.2463064 106.40496,16.0825409 L109.495144,10.9430923 L105.561514,7.15650271 L100.222491,10.1321858 C97.6942537,8.50835059 94.8834674,7.42747895 92.0737316,6.88552647 L90.6693888,0.935171358 L85.0488667,0.935171358 L83.644524,6.88552647 C80.5532893,7.42747895 77.7435534,8.50835059 75.214266,10.1321858 L69.8752426,6.88552647 L65.9416124,10.6731272 L69.0328471,15.8125758 C67.3459552,18.2463064 66.2220608,20.9520244 65.6601136,23.6567313 L59.7601935,25.2795554 L59.7601935,30.6889691 L65.9416124,32.0418281 C66.5035596,35.0175112 67.6274539,37.7222181 69.3143458,39.8859836 L66.2220608,45.0254322 L70.155691,48.8120218 L75.4947144,45.8363387 C78.0250522,47.4591628 80.8337377,48.5420567 83.644524,49.081987 L85.0488667,55.0333532 L90.6693888,55.0333532 L92.0737316,49.081987 C95.1649662,48.5420567 97.9747021,47.4591628 100.222491,45.8363387 L105.561514,48.8120218 L109.495144,45.0254322 L106.40496,39.8859836 C108.090802,37.4512419 109.214696,34.746535 109.776643,32.0418281 L115.959112,30.6889691 L115.959112,25.2795554 L109.776643,23.9266964 Z M87.8596529,41.5088077 C79.9913421,41.5088077 73.8099232,35.5574415 73.8099232,27.9842623 C73.8099232,20.4100719 79.9913421,14.4597168 87.8596529,14.4597168 C95.7269134,14.4597168 101.909383,20.4100719 101.909383,27.9842623 C101.909383,35.5574415 95.7269134,41.5088077 87.8596529,41.5088077 Z" id="Fill-14" fill="#E46F50" mask="url(#mask-2)"></path>
                        </g>
                    </g>
                </g>
            </g>
        </g>
    </g>
</svg>