<?xml version="1.0" encoding="UTF-8"?>
<svg width="116px" height="88px" viewBox="0 0 116 88" version="1.1" xmlns="http://www.w3.org/2000/svg" xmlns:xlink="http://www.w3.org/1999/xlink">
    <!-- Generator: Sketch 51.3 (57544) - http://www.bohemiancoding.com/sketch -->
    <title>Group 8</title>
    <desc>Created with Sketch.</desc>
    <defs>
        <polygon id="path-1" points="0.000384764142 0.0698855359 83.9830169 0.0698855359 83.9830169 88.0747305 0.000384764142 88.0747305"></polygon>
    </defs>
    <g id="Web-Pages" stroke="none" stroke-width="1" fill="none" fill-rule="evenodd">
        <g id="icons" transform="translate(-120.000000, -333.000000)">
            <g id="Group-8" transform="translate(120.000000, 332.000000)">
                <g id="icon1">
                    <g id="Group-8">
                        <g id="Group-16">
                            <path d="M71.7282068,73.2859938 L34.7350203,73.2859938 C33.8895966,73.2859938 33.3233593,73.8374194 33.3233593,74.6616857 C33.3233593,75.4859521 33.8895966,76.0373777 34.7350203,76.0373777 L71.732139,76.0373777 C72.5775627,76.0373777 73.1438,75.4859521 73.1438,74.6616857 C73.1408508,73.8374194 72.5775627,73.2859938 71.7282068,73.2859938" id="Fill-1" fill="#373951"></path>
                            <path d="M60.0073898,6.45617898 C54.0776271,6.45617898 48.5705763,10.3075421 47.018339,15.9462518 C46.7352203,16.6336191 47.1589153,17.4578855 48.0082712,17.5976566 C48.7141017,17.8733694 49.5605085,17.4617149 49.7040339,16.6336191 C50.9731525,12.2346597 55.350678,9.07162123 60.011322,9.07162123 C65.9410847,9.07162123 70.741322,13.7462934 70.741322,19.5209448 C70.741322,20.3452112 71.3075593,20.8966368 72.1529831,20.8966368 C73.0003729,20.8966368 73.5666102,20.3452112 73.5666102,19.5209448 C73.562678,12.3706015 67.493322,6.45617898 60.0073898,6.45617898" id="Fill-3" fill="#373951"></path>
                            <path d="M57.3270034,60.0847118 C57.0429017,61.4604037 56.0578847,62.2837128 56.197478,62.1477711 C52.949478,64.759384 49.1381898,62.5603829 49.1381898,59.2604454 C49.1381898,57.1973861 50.8300203,55.2740978 53.2316136,55.2740978 C56.197478,55.2740978 57.7497153,57.8857107 57.3270034,60.0847118 Z M64.2496475,60.7720791 C65.0950712,60.7720791 65.6622915,60.2206535 65.6622915,59.3973444 C65.6622915,58.573078 65.0950712,58.0216524 64.2496475,58.0216524 L60.0107322,58.0216524 C59.872122,57.1973861 59.4444949,56.3702477 59.0227661,55.681923 C60.4354102,53.8945765 63.5398847,52.3829428 61.9866644,50.8703517 C61.4204271,50.3189261 60.5750034,50.3189261 60.0117153,50.8703517 L57.1864271,53.6217357 C56.4805966,53.2100812 55.6341898,52.7984266 54.7848339,52.6586556 L54.7848339,48.5315796 C54.7848339,47.7073132 54.2185966,47.1558876 53.3721898,47.1558876 C52.5257831,47.1558876 51.9595458,47.7073132 51.9595458,48.5315796 L51.9595458,52.6586556 C51.114122,52.7945973 50.2628,53.2100812 49.5569695,53.6217357 C47.7216136,52.2460437 46.1693763,49.2227763 44.6161559,50.73441 C43.0639186,52.2460437 46.1693763,53.7586348 47.5820203,55.5459813 C47.1583254,56.2333486 46.7365966,57.057615 46.5920881,57.8847534 L42.355139,57.8847534 C41.5077492,57.8847534 40.9415119,58.436179 40.9415119,59.2604454 C40.9454441,60.0847118 41.5116814,60.7720791 42.2184949,60.7720791 L46.4554441,60.7720791 C46.5960203,61.5963455 47.0226644,62.4234839 47.4453763,63.1118085 L44.4775458,65.9991342 C43.9103254,66.5505598 43.9103254,67.3748262 44.4775458,67.9233798 C45.0437831,68.4748054 45.8892068,68.4748054 46.4515119,67.9233798 L49.4173763,65.0350968 C50.1232068,65.4477086 50.9696136,65.8593632 51.8189695,65.9991342 L51.8189695,70.1262102 C51.8189695,70.9504766 52.3861898,71.5019022 53.2316136,71.5019022 C54.0780203,71.5019022 54.6442576,70.9504766 54.6442576,70.1262102 L54.6442576,65.9991342 C55.4916475,65.8631925 56.3400203,65.4477086 57.0468339,65.0350968 L60.0117153,67.9233798 C60.5789356,68.4748054 61.4243593,68.4748054 61.9866644,67.9233798 C62.5529017,67.3709969 62.5529017,66.5467305 61.9866644,65.9991342 L59.0227661,63.1118085 C59.4444949,62.4234839 59.8681898,61.6001748 60.0107322,60.7720791 L64.2496475,60.7720791 Z" id="Fill-5" fill="#373951"></path>
                            <path d="M19.4833797,28.7356878 C19.4833797,30.5230343 22.3096508,30.6589761 22.3096508,28.8716296 C22.4492441,23.2329199 27.2494814,18.6980187 33.0386678,18.6980187 C33.8850746,18.6980187 34.4522949,18.1456358 34.4522949,17.3223267 C34.4522949,16.494231 33.7454814,15.9466348 33.0386678,15.9466348 L33.0406339,15.9466348 C25.6972441,15.9466348 19.624939,21.5853444 19.4833797,28.7356878" id="Fill-7" fill="#373951"></path>
                            <path d="M17.6478271,44.2718169 L21.1799288,44.2718169 C22.0253525,44.2718169 22.5915898,43.7203913 22.5915898,42.8961249 C22.5915898,42.0728158 22.0253525,41.5204329 21.1799288,41.5204329 L17.6478271,41.5204329 C16.8024034,41.5204329 16.2351831,42.0728158 16.2351831,42.8961249 C16.2351831,43.7232633 16.8024034,44.2718169 17.6478271,44.2718169" id="Fill-9" fill="#373951"></path>
                            <g id="Group-13" transform="translate(0.000000, 0.887546)">
                                <mask id="mask-2" fill="white">
                                    <use xlink:href="#path-1"></use>
                                </mask>
                                <g id="Clip-12"></g>
                                <path d="M33.4630508,85.3243039 L13.1306102,85.3243039 C12.7078983,85.3243039 12.4257627,85.0485911 12.4257627,84.6359792 L12.4257627,37.0582893 C12.4257627,36.6466348 12.7078983,36.370922 13.1306102,36.370922 L33.6065763,36.370922 C34.0292881,36.370922 34.3133898,36.6466348 34.3133898,37.0582893 L34.3133898,41.8698606 L31.6316271,41.8698606 C28.5271525,41.8698606 25.9849831,44.3455317 25.9849831,47.3697565 L25.9810508,57.1384142 L17.6487119,57.1384142 C16.8032881,57.1384142 16.2370508,57.6898398 16.2370508,58.5141061 C16.2370508,59.3374152 16.8032881,59.8897981 17.6487119,59.8897981 L25.8375254,59.8897981 L25.8375254,65.1168533 L17.6487119,65.1130239 C16.8032881,65.1130239 16.2370508,65.6644495 16.2370508,66.4887159 C16.2370508,67.3129823 16.8032881,67.8644079 17.6487119,67.8644079 L25.8375254,67.8644079 L25.8375254,73.0914631 L17.6487119,73.0876337 C16.8032881,73.0876337 16.2370508,73.6390593 16.2370508,74.4633257 C16.2370508,75.2875921 16.8032881,75.8390177 17.6487119,75.8390177 L25.8375254,75.8390177 C25.8375254,78.8622851 28.3796949,81.3379563 31.4841695,81.3379563 L34.1659322,81.3379563 L34.1698644,84.6359792 C34.1698644,85.0485911 33.8857627,85.3243039 33.4630508,85.3243039 Z M79.0382712,63.3304641 L77.9421695,62.2582477 L77.9402034,75.8380604 C77.9402034,77.3496941 76.6710847,78.5894443 75.1158983,78.5894443 L31.3435932,78.5894443 C29.792339,78.5894443 28.5192881,77.3535234 28.5192881,75.8380604 L28.5232203,47.2357294 C28.5232203,45.7240957 29.792339,44.4843455 31.3475254,44.4843455 L59.7714576,44.4843455 L57.1054237,41.8775193 L36.9941695,41.8775193 L36.9941695,37.065948 C36.9941695,35.1426597 35.4419322,33.6271967 33.4620678,33.6271967 L13.1306102,33.6233673 C11.155661,33.6233673 9.59949153,35.135001 9.59949153,37.0621186 L9.59949153,49.2997461 C6.4940339,48.1997669 4.23301695,45.7240957 3.2460339,42.5610572 C2.11650847,38.8494651 3.10644068,34.9990593 5.92779661,32.2476753 C9.17677966,29.0836795 12.9880678,29.2234506 14.539322,29.2234506 L15.3857288,29.2234506 C16.0925424,29.0875088 16.5152542,28.5360832 16.5152542,27.8477586 C16.6548475,21.9333361 20.0473559,16.846052 25.4108814,14.2353965 C30.7773559,11.4840125 36.9902373,11.895667 42.0706441,15.1994339 C42.494339,15.4751467 42.9170508,15.4751467 43.3397627,15.3353757 C43.7634576,15.1994339 44.0465763,14.7829927 44.1861695,14.3713382 C46.1611186,7.63264932 52.6571186,2.95701977 59.8609153,2.95701977 C65.790678,2.95701977 71.1581356,5.98124454 74.1220339,11.0714006 C77.0878983,16.1586847 76.947322,22.2090489 73.8389153,27.1603913 C73.6727797,27.40164 73.6128136,27.6390593 73.6128136,27.8525453 L74.9998983,29.2081332 C75.0775593,29.2148345 75.1503051,29.2205786 75.2515593,29.2205786 C76.9178305,29.2205786 79.4649153,29.4197045 81.8124407,30.4593715 L83.9830169,28.3379147 C81.7917966,27.1871967 79.4560678,26.6577898 77.5174915,26.4682373 C80.059661,21.1052404 79.7765424,14.9189344 76.6710847,9.55593757 C73.2844746,3.6443871 67.0706102,0.0696940687 60.0073898,0.0696940687 C52.0987458,0.0696940687 45.0384746,4.88126535 42.2181017,11.8947097 C36.7110508,8.87144225 30.0754576,8.87144225 24.2843051,11.758768 C18.3545424,14.6460937 14.5403051,20.1450323 13.978,26.4711093 C11.8585424,26.4711093 7.76413559,26.7468221 4.09244068,30.3224724 C0.421728814,33.7583517 -0.847389831,38.5737523 0.561322034,43.3834089 C1.83044068,47.647384 5.22098305,50.9463642 9.59949153,52.1861145 L9.59949153,84.6359792 C9.59949153,86.5592674 11.1527119,88.0747305 13.1306102,88.0747305 L33.6065763,88.0747305 C35.5815254,88.0747305 37.1376949,86.5630968 37.1376949,84.6359792 L37.1376949,81.1962706 L51.9621017,81.1962706 L51.9621017,85.3233465 L44.4801017,85.3233465 C43.634678,85.3233465 43.0684407,85.8757294 43.0684407,86.6990385 C43.0684407,87.5233049 43.634678,88.0747305 44.4801017,88.0747305 L62.4129153,88.0747305 C63.2603051,88.0747305 63.8265424,87.5233049 63.8265424,86.6990385 C63.8265424,85.8757294 63.2603051,85.3233465 62.4129153,85.3233465 L54.9309153,85.3233465 L54.9309153,81.1962706 L75.4068814,81.1962706 C78.5113559,81.1962706 81.0535254,78.7215567 81.0535254,75.6973319 L81.0505763,61.3621811 L79.0382712,63.3304641 Z" id="Fill-11" fill="#373951" mask="url(#mask-2)"></path>
                            </g>
                            <polygon id="Fill-14" fill="#E46F50" points="105.925695 13.0177607 79.0461356 39.2985515 65.8958644 26.4415276 56.2590169 35.8684162 79.0392542 58.1504142 115.563525 22.4398626"></polygon>
                        </g>
                    </g>
                </g>
            </g>
        </g>
    </g>
</svg>